# Blender v2.93.0 OBJ File: 'TrackPieces2.blend'
# www.blender.org
mtllib LessRampyRampy.mtl
o Ramp_Cube.004
v -7.000000 0.000000 0.000000
v -7.000000 1.000000 0.000000
v 7.000000 0.000000 0.000000
v 7.000000 1.000000 0.000000
v 5.000000 0.000000 0.000000
v -5.000000 0.000000 0.000000
v -5.000000 1.000000 0.000000
v 5.000000 1.000000 0.000000
v -7.000000 2.000000 0.000000
v 5.000000 2.000000 0.000000
v 7.000000 2.000000 0.000000
v -5.000000 2.000000 0.000000
v -7.000000 0.000000 10.000000
v -7.000000 1.000000 10.000000
v 7.000000 0.000000 10.000000
v 7.000000 1.000000 10.000000
v 5.000000 1.000000 10.000000
v -5.000000 1.000000 10.000000
v -5.000000 0.000000 10.000000
v 5.000000 0.000000 10.000000
v -7.000000 2.000000 10.000000
v 7.000000 2.000000 10.000000
v 5.000000 2.000000 10.000000
v -5.000000 2.000000 10.000000
v -7.000000 0.294863 12.928755
v -7.000000 1.145981 15.740882
v 7.000000 1.281675 12.730941
v 7.000000 2.151256 15.321516
v 5.000000 1.281675 12.730941
v 5.000000 2.151256 15.321516
v -5.000000 1.281675 12.730941
v -5.000000 2.151256 15.321516
v -5.000000 0.294863 12.928755
v -5.000000 1.145981 15.740882
v 5.000000 0.294863 12.928755
v 5.000000 1.145981 15.740882
v 7.000000 2.250025 12.535764
v 7.000000 2.990367 14.976000
v 5.000000 2.250025 12.535764
v 5.000000 2.990367 14.976000
v -5.000000 2.250025 12.535764
v -5.000000 2.990367 14.976000
v -7.000000 2.151256 15.321516
v -7.000000 1.281675 12.730941
v 7.000000 1.145981 15.740882
v 7.000000 0.294863 12.928755
v -7.000000 2.990367 14.976000
v -7.000000 2.250025 12.535764
vt 0.375000 0.125000
vt 0.625000 0.125000
vt 0.625000 0.250000
vt 0.375000 0.250000
vt 0.375000 0.464286
vt 0.625000 0.464286
vt 0.625000 0.500000
vt 0.375000 0.500000
vt 0.625000 0.285714
vt 0.375000 0.285714
vt 0.625000 0.464286
vt 0.625000 0.500000
vt 0.625000 0.250000
vt 0.625000 0.285714
vt 0.839286 0.625000
vt 0.839286 0.500000
vt 0.839286 0.500000
vt 0.839286 0.625000
vt 0.625000 0.625000
vt 0.625000 0.625000
vt 0.625000 0.125000
vt 0.625000 0.656250
vt 0.625000 0.656250
vt 0.839286 0.656250
vt 0.839286 0.656250
vt 0.660714 0.500000
vt 0.660714 0.625000
vt 0.875000 0.500000
vt 0.875000 0.625000
vt 0.339286 0.500000
vt 0.339286 0.625000
vt 0.160714 0.625000
vt 0.160714 0.500000
vt 0.125000 0.500000
vt 0.125000 0.625000
vt 0.660714 0.625000
vt 0.660714 0.500000
vt 0.375000 0.625000
vt 0.375000 0.093750
vt 0.625000 0.093750
vt 0.375000 0.062500
vt 0.625000 0.062500
vt 0.839286 0.687500
vt 0.839286 0.687500
vt 0.625000 0.687500
vt 0.625000 0.687500
vt 0.625000 0.093750
vt 0.625000 0.062500
vt 0.660714 0.656250
vt 0.660714 0.687500
vt 0.875000 0.656250
vt 0.875000 0.687500
vt 0.339286 0.656250
vt 0.160714 0.656250
vt 0.339286 0.687500
vt 0.160714 0.687500
vt 0.125000 0.656250
vt 0.125000 0.687500
vt 0.660714 0.656250
vt 0.660714 0.687500
vt 0.375000 0.656250
vt 0.375000 0.687500
vn -1.0000 0.0000 0.0000
vn 0.0000 0.0000 -1.0000
vn 1.0000 0.0000 0.0000
vn 0.0000 1.0000 0.0000
vn 0.0000 -1.0000 0.0000
vn 0.0000 0.9952 -0.0981
vn 0.0000 0.9569 -0.2903
vn 0.0000 -0.9950 0.1002
vn 0.0000 -0.9571 0.2897
vn 0.0000 0.9947 -0.1026
vn 0.0000 0.9480 -0.3182
vn 0.0000 0.3807 0.9247
vn 0.0000 0.3850 0.9229
usemtl None
s off
f 13/1/1 14/2/1 2/3/1 1/4/1
f 5/5/2 8/6/2 4/7/2 3/8/2
f 1/4/2 2/3/2 7/9/2 6/10/2
f 7/9/2 8/6/2 5/5/2 6/10/2
f 4/7/2 8/6/2 10/11/2 11/12/2
f 7/9/2 2/3/2 9/13/2 12/14/2
f 18/15/3 7/16/3 12/17/3 24/18/3
f 16/19/3 4/7/3 11/12/3 22/20/3
f 2/3/1 14/2/1 21/21/1 9/13/1
f 27/22/3 16/19/3 22/20/3 37/23/3
f 31/24/3 18/15/3 24/18/3 41/25/3
f 11/12/4 10/26/4 23/27/4 22/20/4
f 12/17/4 9/28/4 21/29/4 24/18/4
f 5/30/5 20/31/5 19/32/5 6/33/5
f 1/34/5 6/33/5 19/32/5 13/35/5
f 7/16/4 18/15/4 17/36/4 8/37/4
f 8/37/1 17/36/1 23/27/1 10/26/1
f 5/30/5 3/8/5 15/38/5 20/31/5
f 3/8/3 4/7/3 16/19/3 15/38/3
f 25/39/1 44/40/1 14/2/1 13/1/1
f 26/41/1 43/42/1 44/40/1 25/39/1
f 32/43/3 31/24/3 41/25/3 42/44/3
f 28/45/3 27/22/3 37/23/3 38/46/3
f 14/2/1 44/40/1 48/47/1 21/21/1
f 44/40/1 43/42/1 47/48/1 48/47/1
f 22/20/6 23/27/6 39/49/6 37/23/6
f 37/23/7 39/49/7 40/50/7 38/46/7
f 24/18/6 21/29/6 48/51/6 41/25/6
f 41/25/7 48/51/7 47/52/7 42/44/7
f 20/31/8 35/53/8 33/54/8 19/32/8
f 35/53/9 36/55/9 34/56/9 33/54/9
f 13/35/8 19/32/8 33/54/8 25/57/8
f 25/57/9 33/54/9 34/56/9 26/58/9
f 18/15/10 31/24/10 29/59/10 17/36/10
f 31/24/11 32/43/11 30/60/11 29/59/11
f 17/36/1 29/59/1 39/49/1 23/27/1
f 29/59/1 30/60/1 40/50/1 39/49/1
f 20/31/8 15/38/8 46/61/8 35/53/8
f 35/53/9 46/61/9 45/62/9 36/55/9
f 15/38/3 16/19/3 27/22/3 46/61/3
f 46/61/3 27/22/3 28/45/3 45/62/3
f 38/46/12 40/50/12 30/60/12 28/45/12
f 36/55/13 45/62/13 28/45/13 30/60/13
f 36/55/13 30/60/13 32/43/13 34/56/13
f 43/42/13 26/58/13 34/56/13 32/43/13
f 42/44/12 47/52/12 43/42/12 32/43/12
