# Blender v2.93.0 OBJ File: 'TrackPieces1.blend'
# www.blender.org
mtllib LessRampyRamp.mtl
o 90_Cylinder
v 7.999996 0.000000 15.000000
v 7.999996 1.000000 15.000000
v 5.073644 0.000000 14.711779
v 5.073644 1.000000 14.711779
v 2.259746 0.000000 13.858192
v 2.259746 1.000000 13.858192
v -0.333557 0.000000 12.472043
v -0.333557 1.000000 12.472043
v -2.606604 0.000000 10.606603
v -2.606604 1.000000 10.606603
v -4.472046 0.000000 8.333556
v -4.472046 1.000000 8.333556
v -5.858194 0.000000 5.740253
v -5.858194 1.000000 5.740253
v -6.711781 0.000000 2.926355
v -6.711781 1.000000 2.926355
v -7.000003 0.000000 -0.000000
v -7.000003 1.000000 -0.000000
v 8.000000 1.000000 1.000000
v 7.804910 1.000000 0.980785
v 7.617317 1.000000 0.923880
v 7.444430 1.000000 0.831470
v 7.292893 1.000000 0.707107
v 7.168530 1.000000 0.555570
v 7.076120 1.000000 0.382684
v 7.019215 1.000000 0.195090
v 7.000000 1.000000 0.000000
v 8.000000 0.000000 1.000000
v 7.804910 0.000000 0.980785
v 7.617317 0.000000 0.923880
v 7.444430 0.000000 0.831470
v 7.292893 0.000000 0.707107
v 7.168530 0.000000 0.555570
v 7.076120 0.000000 0.382684
v 7.019215 0.000000 0.195090
v 7.000000 0.000000 0.000000
v -5.000002 1.000000 -0.000000
v 5.000000 1.000000 -0.000000
v 5.228362 0.000000 1.148051
v -4.010434 0.000000 4.974886
v -1.192389 1.000000 9.192389
v 5.878679 1.000000 2.121320
v 5.505591 1.000000 1.666711
v -2.809107 1.000000 7.222415
v 7.414729 0.000000 2.942356
v 5.463824 0.000000 12.750209
v 7.999996 1.000000 13.000000
v 8.000000 1.000000 3.000000
v 7.414729 1.000000 2.942356
v 5.463824 1.000000 12.750209
v -1.192389 0.000000 9.192389
v 5.878679 0.000000 2.121320
v 5.505591 0.000000 1.666711
v -2.809107 0.000000 7.222415
v 5.228361 1.000000 1.148051
v -4.010435 1.000000 4.974886
v 6.851949 1.000000 2.771639
v 3.025113 1.000000 12.010434
v -5.000002 0.000000 -0.000000
v 5.057644 1.000000 0.585271
v 5.000000 0.000000 -0.000000
v -4.750210 1.000000 2.536175
v 8.000000 0.000000 3.000000
v 6.333289 1.000000 2.494409
v 7.999996 0.000000 13.000000
v 0.777584 1.000000 10.809104
v 3.025113 0.000000 12.010434
v 6.851950 0.000000 2.771638
v -4.750209 0.000000 2.536175
v 5.057644 0.000000 0.585271
v 0.777584 0.000000 10.809103
v 6.333289 0.000000 2.494409
v 5.073644 2.000000 14.711779
v 7.999996 2.000000 15.000000
v 2.259746 2.000000 13.858192
v -0.333557 2.000000 12.472043
v -2.606604 2.000000 10.606603
v -4.472046 2.000000 8.333556
v -5.858194 2.000000 5.740253
v -6.711781 2.000000 2.926355
v -7.000003 2.000000 -0.000000
v 7.804910 2.000000 0.980785
v 8.000000 2.000000 1.000000
v 7.617317 2.000000 0.923880
v 7.444430 2.000000 0.831470
v 7.292893 2.000000 0.707107
v 7.168530 2.000000 0.555570
v 7.076120 2.000000 0.382684
v 7.019215 2.000000 0.195090
v 7.000000 2.000000 0.000000
v 5.000000 2.000000 -0.000000
v 5.878679 2.000000 2.121320
v -2.809107 2.000000 7.222415
v 8.000000 2.000000 3.000000
v 5.463824 2.000000 12.750209
v -4.010435 2.000000 4.974886
v 3.025113 2.000000 12.010434
v -4.750210 2.000000 2.536175
v 0.777584 2.000000 10.809104
v -5.000002 2.000000 -0.000000
v -1.192389 2.000000 9.192389
v 5.505591 2.000000 1.666711
v 7.999996 2.000000 13.000000
v 7.414729 2.000000 2.942356
v 5.228361 2.000000 1.148051
v 6.851949 2.000000 2.771639
v 5.057644 2.000000 0.585271
v 6.333289 2.000000 2.494409
vt 0.500000 0.500000
vt 0.500000 1.000000
vt 0.468750 1.000000
vt 0.468750 0.500000
vt 0.437500 1.000000
vt 0.437500 0.500000
vt 0.406250 1.000000
vt 0.406250 0.500000
vt 0.375000 1.000000
vt 0.375000 0.500000
vt 0.343750 1.000000
vt 0.343750 0.500000
vt 0.312500 1.000000
vt 0.312500 0.500000
vt 0.281250 1.000000
vt 0.281250 0.500000
vt 0.250000 1.000000
vt 0.250000 0.500000
vt 0.250000 1.000000
vt 0.250000 1.000000
vt 0.250000 1.000000
vt 0.375000 1.000000
vt 0.343750 1.000000
vt 0.468750 1.000000
vt 0.500000 1.000000
vt 0.500000 1.000000
vt 0.468750 1.000000
vt 0.437500 1.000000
vt 0.406250 1.000000
vt 0.406250 1.000000
vt 0.437500 1.000000
vt 0.406250 1.000000
vt 0.437500 1.000000
vt 0.437500 1.000000
vt 0.406250 1.000000
vt 0.500000 1.000000
vt 0.468750 1.000000
vt 0.468750 1.000000
vt 0.500000 1.000000
vt 0.468750 1.000000
vt 0.468750 1.000000
vt 0.437500 1.000000
vt 0.406250 1.000000
vt 0.406250 1.000000
vt 0.437500 1.000000
vt 0.375000 0.500000
vt 0.343750 0.500000
vt 0.343750 0.500000
vt 0.375000 0.500000
vt 0.500000 0.500000
vt 0.468750 0.500000
vt 0.468750 0.500000
vt 0.500000 0.500000
vt 0.312500 0.500000
vt 0.312500 0.500000
vt 0.437500 0.500000
vt 0.437500 0.500000
vt 0.281250 0.500000
vt 0.281250 0.500000
vt 0.406250 0.500000
vt 0.406250 0.500000
vt 0.250000 0.500000
vt 0.250000 0.500000
vt 0.500000 1.000000
vt 0.375000 1.000000
vt 0.343750 1.000000
vt 0.312500 1.000000
vt 0.281250 1.000000
vt 0.250000 1.000000
vt 0.343750 0.500000
vt 0.312500 0.500000
vt 0.500000 1.000000
vt 0.375000 1.000000
vt 0.375000 1.000000
vt 0.406250 1.000000
vt 0.281250 1.000000
vt 0.281250 1.000000
vt 0.250000 1.000000
vt 0.468750 0.500000
vt 0.437500 0.500000
vt 0.500000 1.000000
vt 0.281250 0.500000
vt 0.312500 1.000000
vt 0.343750 1.000000
vt 0.343750 1.000000
vt 0.312500 1.000000
vt 0.312500 1.000000
vt 0.281250 1.000000
vt 0.406250 0.500000
vt 0.343750 1.000000
vt 0.281250 1.000000
vt 0.250000 1.000000
vt 0.250000 0.500000
vt 0.312500 1.000000
vt 0.343750 1.000000
vt 0.375000 0.500000
vt 0.500000 0.500000
vt 0.375000 1.000000
vt 0.375000 1.000000
vt 0.343750 1.000000
vt 0.312500 1.000000
vt 0.281250 1.000000
vt 0.250000 1.000000
vt 0.375000 1.000000
vt 0.281250 1.000000
vt 0.437500 1.000000
vt 0.312500 1.000000
vt 0.468750 1.000000
vn -0.0980 0.0000 0.9952
vn -0.2903 0.0000 0.9569
vn -0.4714 0.0000 0.8819
vn -0.6344 0.0000 0.7730
vn -0.7730 0.0000 0.6344
vn -0.8819 0.0000 0.4714
vn -0.9569 0.0000 0.2903
vn -0.9952 0.0000 0.0980
vn 0.0000 0.0000 -1.0000
vn 0.4714 0.0000 -0.8819
vn 0.0980 0.0000 -0.9952
vn 0.2903 0.0000 -0.9569
vn 0.0000 -1.0000 0.0000
vn 0.6344 0.0000 -0.7730
vn 0.7730 0.0000 -0.6344
vn 0.8819 0.0000 -0.4714
vn 0.9569 0.0000 -0.2903
vn 0.9952 0.0000 -0.0980
vn 0.0000 1.0000 0.0000
vn 1.0000 0.0000 0.0000
usemtl None
s off
f 1/1/1 2/2/1 4/3/1 3/4/1
f 3/4/2 4/3/2 6/5/2 5/6/2
f 5/6/3 6/5/3 8/7/3 7/8/3
f 7/8/4 8/7/4 10/9/4 9/10/4
f 9/10/5 10/9/5 12/11/5 11/12/5
f 11/12/6 12/11/6 14/13/6 13/14/6
f 13/14/7 14/13/7 16/15/7 15/16/7
f 15/16/8 16/15/8 18/17/8 17/18/8
f 37/19/9 18/17/9 81/20/9 100/21/9
f 12/11/5 10/9/5 77/22/5 78/23/5
f 49/24/1 48/25/1 94/26/1 104/27/1
f 21/28/10 22/29/10 85/30/10 84/31/10
f 64/32/3 57/33/3 106/34/3 108/35/3
f 47/36/11 50/37/11 95/38/11 103/39/11
f 20/40/12 21/28/12 84/31/12 82/41/12
f 58/42/10 66/43/10 99/44/10 97/45/10
f 52/46/13 53/47/13 33/48/13 32/49/13
f 63/50/13 45/51/13 29/52/13 28/53/13
f 53/47/13 39/54/13 34/55/13 33/48/13
f 45/51/13 68/56/13 30/57/13 29/52/13
f 39/54/13 70/58/13 35/59/13 34/55/13
f 68/56/13 72/60/13 31/61/13 30/57/13
f 70/58/13 61/62/13 36/63/13 35/59/13
f 72/60/13 52/46/13 32/49/13 31/61/13
f 20/40/11 19/64/11 28/53/11 29/52/11
f 21/28/12 20/40/12 29/52/12 30/57/12
f 22/29/10 21/28/10 30/57/10 31/61/10
f 23/65/14 22/29/14 31/61/14 32/49/14
f 24/66/15 23/65/15 32/49/15 33/48/15
f 25/67/16 24/66/16 33/48/16 34/55/16
f 26/68/17 25/67/17 34/55/17 35/59/17
f 27/69/18 26/68/18 35/59/18 36/63/18
f 54/70/13 40/71/13 39/54/13 53/47/13
f 19/64/11 20/40/11 82/41/11 83/72/11
f 11/12/13 13/14/13 40/71/13 54/70/13
f 41/73/19 66/43/19 64/32/19 42/74/19
f 10/9/4 8/7/4 76/75/4 77/22/4
f 37/19/19 62/76/19 60/77/19 38/78/19
f 46/79/13 67/80/13 68/56/13 45/51/13
f 3/4/13 5/6/13 67/80/13 46/79/13
f 2/2/20 47/36/20 103/39/20 74/81/20
f 66/43/19 58/42/19 57/33/19 64/32/19
f 40/71/13 69/82/13 70/58/13 39/54/13
f 55/83/6 43/84/6 102/85/6 105/86/6
f 13/14/13 15/16/13 69/82/13 40/71/13
f 62/76/19 56/87/19 55/83/19 60/77/19
f 18/17/8 16/15/8 80/88/8 81/20/8
f 58/42/19 50/37/19 49/24/19 57/33/19
f 71/89/13 72/60/13 68/56/13 67/80/13
f 5/6/13 7/8/13 71/89/13 67/80/13
f 48/25/20 19/64/20 83/72/20 94/26/20
f 56/87/19 44/90/19 43/84/19 55/83/19
f 38/78/8 60/77/8 107/91/8 91/92/8
f 61/62/13 70/58/13 69/82/13 59/93/13
f 50/37/19 47/36/19 48/25/19 49/24/19
f 15/16/13 17/18/13 59/93/13 69/82/13
f 44/90/16 56/87/16 96/94/16 93/95/16
f 44/90/19 41/73/19 42/74/19 43/84/19
f 52/46/13 72/60/13 71/89/13 51/96/13
f 7/8/13 9/10/13 51/96/13 71/89/13
f 1/1/13 3/4/13 46/79/13 65/97/13
f 65/97/13 46/79/13 45/51/13 63/50/13
f 9/10/13 11/12/13 54/70/13 51/96/13
f 51/96/13 54/70/13 53/47/13 52/46/13
f 38/78/9 27/69/9 36/63/9 61/62/9
f 37/19/9 38/78/9 61/62/9 59/93/9
f 17/18/9 18/17/9 37/19/9 59/93/9
f 19/64/20 48/25/20 63/50/20 28/53/20
f 48/25/20 47/36/20 65/97/20 63/50/20
f 1/1/20 65/97/20 47/36/20 2/2/20
f 102/85/19 92/98/19 86/99/19 87/100/19
f 104/27/19 94/26/19 83/72/19 82/41/19
f 105/86/19 102/85/19 87/100/19 88/101/19
f 106/34/19 104/27/19 82/41/19 84/31/19
f 107/91/19 105/86/19 88/101/19 89/102/19
f 108/35/19 106/34/19 84/31/19 85/30/19
f 91/92/19 107/91/19 89/102/19 90/103/19
f 92/98/19 108/35/19 85/30/19 86/99/19
f 77/22/19 76/75/19 99/44/19 101/104/19
f 81/20/19 80/88/19 98/105/19 100/21/19
f 76/75/19 75/106/19 97/45/19 99/44/19
f 80/88/19 79/107/19 96/94/19 98/105/19
f 75/106/19 73/108/19 95/38/19 97/45/19
f 79/107/19 78/23/19 93/95/19 96/94/19
f 73/108/19 74/81/19 103/39/19 95/38/19
f 78/23/19 77/22/19 101/104/19 93/95/19
f 22/29/14 23/65/14 86/99/14 85/30/14
f 41/73/15 44/90/15 93/95/15 101/104/15
f 56/87/17 62/76/17 98/105/17 96/94/17
f 4/3/1 2/2/1 74/81/1 73/108/1
f 23/65/15 24/66/15 87/100/15 86/99/15
f 43/84/5 42/74/5 92/98/5 102/85/5
f 24/66/16 25/67/16 88/101/16 87/100/16
f 14/13/6 12/11/6 78/23/6 79/107/6
f 60/77/7 55/83/7 105/86/7 107/91/7
f 25/67/17 26/68/17 89/102/17 88/101/17
f 6/5/2 4/3/2 73/108/2 75/106/2
f 66/43/14 41/73/14 101/104/14 99/44/14
f 26/68/18 27/69/18 90/103/18 89/102/18
f 50/37/12 58/42/12 97/45/12 95/38/12
f 27/69/9 38/78/9 91/92/9 90/103/9
f 16/15/7 14/13/7 79/107/7 80/88/7
f 42/74/4 64/32/4 108/35/4 92/98/4
f 57/33/2 49/24/2 104/27/2 106/34/2
f 8/7/3 6/5/3 75/106/3 76/75/3
f 62/76/18 37/19/18 100/21/18 98/105/18
o Ramp_Cube.004
v -7.000000 0.000000 0.000000
v -7.000000 1.000000 0.000000
v 7.000000 0.000000 0.000000
v 7.000000 1.000000 0.000000
v 5.000000 0.000000 0.000000
v -5.000000 0.000000 0.000000
v -5.000000 1.000000 0.000000
v 5.000000 1.000000 0.000000
v -7.000000 2.000000 0.000000
v 5.000000 2.000000 0.000000
v 7.000000 2.000000 0.000000
v -5.000000 2.000000 0.000000
v -7.000000 0.000000 10.000000
v -7.000000 1.000000 10.000000
v 7.000000 0.000000 10.000000
v 7.000000 1.000000 10.000000
v 5.000000 1.000000 10.000000
v -5.000000 1.000000 10.000000
v -5.000000 0.000000 10.000000
v 5.000000 0.000000 10.000000
v -7.000000 2.000000 10.000000
v 7.000000 2.000000 10.000000
v 5.000000 2.000000 10.000000
v -5.000000 2.000000 10.000000
v -7.000000 0.294863 12.928755
v -7.000000 1.145981 15.740882
v 7.000000 1.281675 12.730941
v 7.000000 2.151256 15.321516
v 5.000000 1.281675 12.730941
v 5.000000 2.151256 15.321516
v -5.000000 1.281675 12.730941
v -5.000000 2.151256 15.321516
v -5.000000 0.294863 12.928755
v -5.000000 1.145981 15.740882
v 5.000000 0.294863 12.928755
v 5.000000 1.145981 15.740882
v 7.000000 2.250025 12.535764
v 7.000000 2.990367 14.976000
v 5.000000 2.250025 12.535764
v 5.000000 2.990367 14.976000
v -5.000000 2.250025 12.535764
v -5.000000 2.990367 14.976000
v -7.000000 2.151256 15.321516
v -7.000000 1.281675 12.730941
v 7.000000 1.145981 15.740882
v 7.000000 0.294863 12.928755
v -7.000000 2.990367 14.976000
v -7.000000 2.250025 12.535764
vt 0.375000 0.125000
vt 0.625000 0.125000
vt 0.625000 0.250000
vt 0.375000 0.250000
vt 0.375000 0.464286
vt 0.625000 0.464286
vt 0.625000 0.500000
vt 0.375000 0.500000
vt 0.625000 0.285714
vt 0.375000 0.285714
vt 0.625000 0.464286
vt 0.625000 0.500000
vt 0.625000 0.250000
vt 0.625000 0.285714
vt 0.839286 0.625000
vt 0.839286 0.500000
vt 0.839286 0.500000
vt 0.839286 0.625000
vt 0.625000 0.625000
vt 0.625000 0.625000
vt 0.625000 0.125000
vt 0.625000 0.656250
vt 0.625000 0.656250
vt 0.839286 0.656250
vt 0.839286 0.656250
vt 0.660714 0.500000
vt 0.660714 0.625000
vt 0.875000 0.500000
vt 0.875000 0.625000
vt 0.339286 0.500000
vt 0.339286 0.625000
vt 0.160714 0.625000
vt 0.160714 0.500000
vt 0.125000 0.500000
vt 0.125000 0.625000
vt 0.660714 0.625000
vt 0.660714 0.500000
vt 0.375000 0.625000
vt 0.375000 0.093750
vt 0.625000 0.093750
vt 0.375000 0.062500
vt 0.625000 0.062500
vt 0.839286 0.687500
vt 0.839286 0.687500
vt 0.625000 0.687500
vt 0.625000 0.687500
vt 0.625000 0.093750
vt 0.625000 0.062500
vt 0.660714 0.656250
vt 0.660714 0.687500
vt 0.875000 0.656250
vt 0.875000 0.687500
vt 0.339286 0.656250
vt 0.160714 0.656250
vt 0.339286 0.687500
vt 0.160714 0.687500
vt 0.125000 0.656250
vt 0.125000 0.687500
vt 0.660714 0.656250
vt 0.660714 0.687500
vt 0.375000 0.656250
vt 0.375000 0.687500
vn -1.0000 0.0000 0.0000
vn 0.0000 0.0000 -1.0000
vn 1.0000 0.0000 0.0000
vn 0.0000 1.0000 0.0000
vn 0.0000 -1.0000 0.0000
vn 0.0000 0.9952 -0.0981
vn 0.0000 0.9569 -0.2903
vn 0.0000 -0.9950 0.1002
vn 0.0000 -0.9571 0.2897
vn 0.0000 0.9947 -0.1026
vn 0.0000 0.9480 -0.3182
vn 0.0000 0.3807 0.9247
vn 0.0000 0.3850 0.9229
usemtl None
s off
f 121/109/21 122/110/21 110/111/21 109/112/21
f 113/113/22 116/114/22 112/115/22 111/116/22
f 109/112/22 110/111/22 115/117/22 114/118/22
f 115/117/22 116/114/22 113/113/22 114/118/22
f 112/115/22 116/114/22 118/119/22 119/120/22
f 115/117/22 110/111/22 117/121/22 120/122/22
f 126/123/23 115/124/23 120/125/23 132/126/23
f 124/127/23 112/115/23 119/120/23 130/128/23
f 110/111/21 122/110/21 129/129/21 117/121/21
f 135/130/23 124/127/23 130/128/23 145/131/23
f 139/132/23 126/123/23 132/126/23 149/133/23
f 119/120/24 118/134/24 131/135/24 130/128/24
f 120/125/24 117/136/24 129/137/24 132/126/24
f 113/138/25 128/139/25 127/140/25 114/141/25
f 109/142/25 114/141/25 127/140/25 121/143/25
f 115/124/24 126/123/24 125/144/24 116/145/24
f 116/145/21 125/144/21 131/135/21 118/134/21
f 113/138/25 111/116/25 123/146/25 128/139/25
f 111/116/23 112/115/23 124/127/23 123/146/23
f 133/147/21 152/148/21 122/110/21 121/109/21
f 134/149/21 151/150/21 152/148/21 133/147/21
f 140/151/23 139/132/23 149/133/23 150/152/23
f 136/153/23 135/130/23 145/131/23 146/154/23
f 122/110/21 152/148/21 156/155/21 129/129/21
f 152/148/21 151/150/21 155/156/21 156/155/21
f 130/128/26 131/135/26 147/157/26 145/131/26
f 145/131/27 147/157/27 148/158/27 146/154/27
f 132/126/26 129/137/26 156/159/26 149/133/26
f 149/133/27 156/159/27 155/160/27 150/152/27
f 128/139/28 143/161/28 141/162/28 127/140/28
f 143/161/29 144/163/29 142/164/29 141/162/29
f 121/143/28 127/140/28 141/162/28 133/165/28
f 133/165/29 141/162/29 142/164/29 134/166/29
f 126/123/30 139/132/30 137/167/30 125/144/30
f 139/132/31 140/151/31 138/168/31 137/167/31
f 125/144/21 137/167/21 147/157/21 131/135/21
f 137/167/21 138/168/21 148/158/21 147/157/21
f 128/139/28 123/146/28 154/169/28 143/161/28
f 143/161/29 154/169/29 153/170/29 144/163/29
f 123/146/23 124/127/23 135/130/23 154/169/23
f 154/169/23 135/130/23 136/153/23 153/170/23
f 146/154/32 148/158/32 138/168/32 136/153/32
f 144/163/33 153/170/33 136/153/33 138/168/33
f 144/163/33 138/168/33 140/151/33 142/164/33
f 151/150/33 134/166/33 142/164/33 140/151/33
f 150/152/32 155/160/32 151/150/32 140/151/32
o 45_Cylinder.001
v -2.606604 0.000000 10.606603
v -2.606604 1.000000 10.606603
v -4.472046 0.000000 8.333556
v -4.472046 1.000000 8.333556
v -5.858194 0.000000 5.740253
v -5.858194 1.000000 5.740253
v -6.711781 0.000000 2.926355
v -6.711781 1.000000 2.926355
v -7.000003 0.000000 -0.000000
v -7.000003 1.000000 -0.000000
v 7.292893 1.000000 0.707107
v 7.168530 1.000000 0.555570
v 7.076120 1.000000 0.382684
v 7.019215 1.000000 0.195090
v 7.000000 1.000000 0.000000
v 7.292893 0.000000 0.707107
v 7.168530 0.000000 0.555570
v 7.076120 0.000000 0.382684
v 7.019215 0.000000 0.195090
v 7.000000 0.000000 0.000000
v -5.000002 1.000000 -0.000000
v 5.000000 1.000000 -0.000000
v 5.228362 0.000000 1.148051
v -4.010434 0.000000 4.974886
v -1.192389 1.000000 9.192389
v 5.878679 1.000000 2.121320
v 5.505591 1.000000 1.666711
v -2.809107 1.000000 7.222415
v -1.192389 0.000000 9.192389
v 5.878679 0.000000 2.121320
v 5.505591 0.000000 1.666711
v -2.809107 0.000000 7.222415
v 5.228361 1.000000 1.148051
v -4.010435 1.000000 4.974886
v -5.000002 0.000000 -0.000000
v 5.057644 1.000000 0.585271
v 5.000000 0.000000 -0.000000
v -4.750210 1.000000 2.536175
v -4.750209 0.000000 2.536175
v 5.057644 0.000000 0.585271
v -2.606604 2.000000 10.606603
v -4.472046 2.000000 8.333556
v -5.858194 2.000000 5.740253
v -6.711781 2.000000 2.926355
v -7.000003 2.000000 -0.000000
v 7.292893 2.000000 0.707107
v 7.168530 2.000000 0.555570
v 7.076120 2.000000 0.382684
v 7.019215 2.000000 0.195090
v 7.000000 2.000000 0.000000
v 5.000000 2.000000 -0.000000
v 5.878679 2.000000 2.121320
v -2.809107 2.000000 7.222415
v -4.010435 2.000000 4.974886
v -4.750210 2.000000 2.536175
v -5.000002 2.000000 -0.000000
v -1.192389 2.000000 9.192389
v 5.505591 2.000000 1.666711
v 5.228361 2.000000 1.148051
v 5.057644 2.000000 0.585271
vt 0.375000 0.500000
vt 0.375000 1.000000
vt 0.343750 1.000000
vt 0.343750 0.500000
vt 0.312500 1.000000
vt 0.312500 0.500000
vt 0.281250 1.000000
vt 0.281250 0.500000
vt 0.250000 1.000000
vt 0.250000 0.500000
vt 0.250000 1.000000
vt 0.250000 1.000000
vt 0.250000 1.000000
vt 0.375000 1.000000
vt 0.343750 1.000000
vt 0.375000 0.500000
vt 0.343750 0.500000
vt 0.343750 0.500000
vt 0.375000 0.500000
vt 0.312500 0.500000
vt 0.312500 0.500000
vt 0.281250 0.500000
vt 0.281250 0.500000
vt 0.250000 0.500000
vt 0.250000 0.500000
vt 0.343750 1.000000
vt 0.375000 1.000000
vt 0.312500 1.000000
vt 0.281250 1.000000
vt 0.250000 1.000000
vt 0.343750 0.500000
vt 0.312500 0.500000
vt 0.281250 1.000000
vt 0.281250 1.000000
vt 0.250000 1.000000
vt 0.281250 0.500000
vt 0.312500 1.000000
vt 0.343750 1.000000
vt 0.343750 1.000000
vt 0.312500 1.000000
vt 0.312500 1.000000
vt 0.281250 1.000000
vt 0.343750 1.000000
vt 0.281250 1.000000
vt 0.250000 1.000000
vt 0.250000 0.500000
vt 0.312500 1.000000
vt 0.343750 1.000000
vt 0.375000 1.000000
vt 0.375000 1.000000
vt 0.375000 0.500000
vt 0.375000 1.000000
vt 0.375000 1.000000
vt 0.343750 1.000000
vt 0.312500 1.000000
vt 0.281250 1.000000
vt 0.250000 1.000000
vt 0.281250 1.000000
vt 0.312500 1.000000
vt 0.375000 1.000000
vn -0.7730 0.0000 0.6344
vn -0.8819 0.0000 0.4714
vn -0.9569 0.0000 0.2903
vn -0.9952 0.0000 0.0980
vn 0.0000 0.0000 -1.0000
vn 0.0000 -1.0000 0.0000
vn 0.7730 0.0000 -0.6344
vn 0.8819 0.0000 -0.4714
vn 0.9569 0.0000 -0.2903
vn 0.9952 0.0000 -0.0980
vn 0.0000 1.0000 0.0000
vn 0.7071 0.0000 0.7071
usemtl None
s off
f 157/171/34 158/172/34 160/173/34 159/174/34
f 159/174/35 160/173/35 162/175/35 161/176/35
f 161/176/36 162/175/36 164/177/36 163/178/36
f 163/178/37 164/177/37 166/179/37 165/180/37
f 177/181/38 166/179/38 201/182/38 212/183/38
f 160/173/34 158/172/34 197/184/34 198/185/34
f 186/186/39 187/187/39 173/188/39 172/189/39
f 187/187/39 179/190/39 174/191/39 173/188/39
f 179/190/39 196/192/39 175/193/39 174/191/39
f 196/192/39 193/194/39 176/195/39 175/193/39
f 168/196/40 167/197/40 172/189/40 173/188/40
f 169/198/41 168/196/41 173/188/41 174/191/41
f 170/199/42 169/198/42 174/191/42 175/193/42
f 171/200/43 170/199/43 175/193/43 176/195/43
f 188/201/39 180/202/39 179/190/39 187/187/39
f 159/174/39 161/176/39 180/202/39 188/201/39
f 177/181/44 194/203/44 192/204/44 178/205/44
f 180/202/39 195/206/39 196/192/39 179/190/39
f 189/207/35 183/208/35 214/209/35 215/210/35
f 161/176/39 163/178/39 195/206/39 180/202/39
f 194/203/44 190/211/44 189/207/44 192/204/44
f 166/179/37 164/177/37 200/212/37 201/182/37
f 190/211/44 184/213/44 183/208/44 189/207/44
f 178/205/37 192/204/37 216/214/37 207/215/37
f 193/194/39 196/192/39 195/206/39 191/216/39
f 163/178/39 165/180/39 191/216/39 195/206/39
f 184/213/41 190/211/41 210/217/41 209/218/41
f 184/213/44 181/219/44 182/220/44 183/208/44
f 157/171/39 159/174/39 188/201/39 185/221/39
f 185/221/39 188/201/39 187/187/39 186/186/39
f 178/205/38 171/200/38 176/195/38 193/194/38
f 177/181/38 178/205/38 193/194/38 191/216/38
f 165/180/38 166/179/38 177/181/38 191/216/38
f 214/209/44 208/222/44 202/223/44 203/224/44
f 215/210/44 214/209/44 203/224/44 204/225/44
f 216/214/44 215/210/44 204/225/44 205/226/44
f 207/215/44 216/214/44 205/226/44 206/227/44
f 201/182/44 200/212/44 211/228/44 212/183/44
f 200/212/44 199/229/44 210/217/44 211/228/44
f 199/229/44 198/185/44 209/218/44 210/217/44
f 198/185/44 197/184/44 213/230/44 209/218/44
f 181/219/40 184/213/40 209/218/40 213/230/40
f 190/211/42 194/203/42 211/228/42 210/217/42
f 167/197/40 168/196/40 203/224/40 202/223/40
f 183/208/34 182/220/34 208/222/34 214/209/34
f 168/196/41 169/198/41 204/225/41 203/224/41
f 162/175/35 160/173/35 198/185/35 199/229/35
f 192/204/36 189/207/36 215/210/36 216/214/36
f 169/198/42 170/199/42 205/226/42 204/225/42
f 170/199/43 171/200/43 206/227/43 205/226/43
f 171/200/38 178/205/38 207/215/38 206/227/38
f 164/177/36 162/175/36 199/229/36 200/212/36
f 194/203/43 177/181/43 212/183/43 211/228/43
f 208/222/45 182/220/45 167/197/45 202/223/45
f 167/197/45 182/220/45 186/186/45 172/189/45
f 181/219/45 185/221/45 186/186/45 182/220/45
f 157/171/45 185/221/45 181/219/45 158/172/45
f 158/172/45 181/219/45 213/230/45 197/184/45
o Straight_Cube.005
v -7.000000 0.000000 20.000000
v -7.000000 1.000000 20.000000
v -7.000000 0.000000 0.000000
v -7.000000 1.000000 0.000000
v 7.000000 0.000000 20.000000
v 7.000000 1.000000 20.000000
v 7.000000 0.000000 0.000000
v 7.000000 1.000000 0.000000
v 5.000000 0.000000 0.000000
v -5.000000 0.000000 0.000000
v -5.000000 1.000000 0.000000
v 5.000000 1.000000 0.000000
v -5.000000 0.000000 20.000000
v 5.000000 0.000000 20.000000
v 5.000000 1.000000 20.000000
v -5.000000 1.000000 20.000000
v -7.000000 2.000000 20.000000
v -7.000000 2.000000 0.000000
v 5.000000 2.000000 0.000000
v 7.000000 2.000000 0.000000
v 7.000000 2.000000 20.000000
v -5.000000 2.000000 20.000000
v -5.000000 2.000000 0.000000
v 5.000000 2.000000 20.000000
vt 0.375000 0.000000
vt 0.625000 0.000000
vt 0.625000 0.250000
vt 0.375000 0.250000
vt 0.375000 0.464286
vt 0.625000 0.464286
vt 0.625000 0.500000
vt 0.375000 0.500000
vt 0.625000 0.750000
vt 0.375000 0.750000
vt 0.375000 0.964286
vt 0.625000 0.964286
vt 0.625000 1.000000
vt 0.375000 1.000000
vt 0.339286 0.500000
vt 0.339286 0.750000
vt 0.625000 0.785714
vt 0.625000 0.750000
vt 0.625000 0.785714
vt 0.660714 0.500000
vt 0.660714 0.750000
vt 0.660714 0.750000
vt 0.660714 0.500000
vt 0.839286 0.500000
vt 0.839286 0.750000
vt 0.125000 0.500000
vt 0.160714 0.500000
vt 0.160714 0.750000
vt 0.125000 0.750000
vt 0.375000 0.785714
vt 0.625000 0.285714
vt 0.375000 0.285714
vt 0.839286 0.500000
vt 0.875000 0.500000
vt 0.875000 0.750000
vt 0.839286 0.750000
vt 0.625000 0.500000
vt 0.625000 0.464286
vt 0.625000 0.250000
vt 0.625000 0.285714
vt 0.625000 0.000000
vt 0.625000 0.964286
vt 0.625000 1.000000
vn -1.0000 0.0000 0.0000
vn 0.0000 0.0000 -1.0000
vn 1.0000 0.0000 0.0000
vn 0.0000 0.0000 1.0000
vn 0.0000 -1.0000 0.0000
vn 0.0000 1.0000 0.0000
usemtl None
s off
f 217/231/46 218/232/46 220/233/46 219/234/46
f 225/235/47 228/236/47 224/237/47 223/238/47
f 223/238/48 224/237/48 222/239/48 221/240/48
f 229/241/49 232/242/49 218/243/49 217/244/49
f 225/245/50 223/238/50 221/240/50 230/246/50
f 231/247/49 222/239/49 237/248/49 240/249/49
f 228/250/46 231/251/46 240/252/46 235/253/46
f 227/254/51 232/255/51 231/251/51 228/250/51
f 219/256/50 226/257/50 229/258/50 217/259/50
f 225/245/50 230/246/50 229/258/50 226/257/50
f 221/240/49 222/239/49 231/247/49 230/260/49
f 231/247/49 232/242/49 229/241/49 230/260/49
f 219/234/47 220/233/47 227/261/47 226/262/47
f 227/261/47 228/236/47 225/235/47 226/262/47
f 239/263/51 234/264/51 233/265/51 238/266/51
f 236/267/51 235/253/51 240/252/51 237/248/51
f 224/237/47 228/236/47 235/268/47 236/267/47
f 227/261/47 220/233/47 234/269/47 239/270/47
f 232/255/48 227/254/48 239/263/48 238/266/48
f 222/239/48 224/237/48 236/267/48 237/248/48
f 220/233/46 218/232/46 233/271/46 234/269/46
f 218/243/49 232/242/49 238/272/49 233/273/49
